HIERARCHY
ROOT hip
{
	OFFSET 0.000000 0.000000 0.000000
	CHANNELS 6 Xposition Yposition Zposition Zrotation Yrotation Xrotation 
	JOINT lhipjoint
	{
		OFFSET 0.000000 0.000000 0.000000
		CHANNELS 3 Zrotation Yrotation Xrotation
		JOINT lfemur
		{
			OFFSET 1.363060 -1.794630 0.839290
			CHANNELS 3 Zrotation Yrotation Xrotation
			JOINT ltibia
			{
				OFFSET 2.448110 -6.726130 0.000000
				CHANNELS 3 Zrotation Yrotation Xrotation
				JOINT lfoot
				{
					OFFSET 2.562200 -7.039590 0.000000
					CHANNELS 3 Zrotation Yrotation Xrotation
					JOINT ltoes
					{
						OFFSET 0.157640 -0.433110 2.322550
						CHANNELS 3 Zrotation Yrotation Xrotation
						End Site
						{
							OFFSET 0.000000 0.000000 0.000000
						}
					}
				}
			}
		}
	}
	JOINT rhipjoint
	{
		OFFSET 0.000000 0.000000 0.000000
		CHANNELS 3 Zrotation Yrotation Xrotation
		JOINT rfemur
		{
			OFFSET -1.305520 -1.794630 0.839290
			CHANNELS 3 Zrotation Yrotation Xrotation
			JOINT rtibia
			{
				OFFSET -2.542530 -6.985550 0.000000
				CHANNELS 3 Zrotation Yrotation Xrotation
				JOINT rfoot
				{
					OFFSET -2.568260 -7.056230 0.000000
					CHANNELS 3 Zrotation Yrotation Xrotation
					JOINT rtoes
					{
						OFFSET -0.164730 -0.452590 2.363150
						CHANNELS 3 Zrotation Yrotation Xrotation
						End Site
						{
							OFFSET 0.000000 0.000000 0.000000
						}
					}
				}
			}
		}
	}
	JOINT lowerback
	{
		OFFSET 0.000000 0.000000 0.000000
		CHANNELS 3 Zrotation Yrotation Xrotation
		JOINT upperback
		{
			OFFSET 0.028270 2.035590 -0.193380
			CHANNELS 3 Zrotation Yrotation Xrotation
			JOINT thorax
			{
				OFFSET 0.056720 2.048850 -0.042750
				CHANNELS 3 Zrotation Yrotation Xrotation
				JOINT lowerneck
				{
					OFFSET 0.000000 0.000000 0.000000
					CHANNELS 3 Zrotation Yrotation Xrotation
					JOINT upperneck
					{
						OFFSET -0.054170 1.746240 0.172020
						CHANNELS 3 Zrotation Yrotation Xrotation
						JOINT head
						{
							OFFSET 0.104070 1.761360 -0.123970
							CHANNELS 3 Zrotation Yrotation Xrotation
							End Site
							{
								OFFSET 0.000000 0.000000 0.000000
							}
						}
					}
				}
				JOINT lclavicle
				{
					OFFSET 0.000000 0.000000 0.000000
					CHANNELS 3 Zrotation Yrotation Xrotation
					JOINT lhumerus
					{
						OFFSET 3.362410 1.200890 -0.311210
						CHANNELS 3 Zrotation Yrotation Xrotation
						JOINT lradius
						{
							OFFSET 4.983000 -0.000000 -0.000000
							CHANNELS 3 Zrotation Yrotation Xrotation
							JOINT lwrist
							{
								OFFSET 3.483560 -0.000000 -0.000000
								CHANNELS 3 Zrotation Yrotation Xrotation
								JOINT lhand
								{
									OFFSET 0.000000 0.000000 0.000000
									CHANNELS 3 Zrotation Yrotation Xrotation
									JOINT lfingers
									{
										OFFSET 0.715260 -0.000000 -0.000000
										CHANNELS 3 Zrotation Yrotation Xrotation
										End Site
										{
											OFFSET 0.000000 0.000000 0.000000
										}
									}
								}
								JOINT lthumb
								{
									OFFSET 0.000000 0.000000 0.000000
									CHANNELS 3 Zrotation Yrotation Xrotation
									End Site
									{
										OFFSET 0.000000 0.000000 0.000000
									}
								}
							}
						}
					}
				}
				JOINT rclavicle
				{
					OFFSET 0.000000 0.000000 0.000000
					CHANNELS 3 Zrotation Yrotation Xrotation
					JOINT rhumerus
					{
						OFFSET -3.136600 1.374050 -0.404650
						CHANNELS 3 Zrotation Yrotation Xrotation
						JOINT rradius
						{
							OFFSET -5.241900 -0.000000 -0.000000
							CHANNELS 3 Zrotation Yrotation Xrotation
							JOINT rwrist
							{
								OFFSET -3.444170 -0.000000 -0.000000
								CHANNELS 3 Zrotation Yrotation Xrotation
								JOINT rhand
								{
									OFFSET 0.000000 0.000000 0.000000
									CHANNELS 3 Zrotation Yrotation Xrotation
									JOINT rfingers
									{
										OFFSET -0.622530 -0.000000 -0.000000
										CHANNELS 3 Zrotation Yrotation Xrotation
										End Site
										{
											OFFSET 0.000000 0.000000 0.000000
										}
									}
								}
								JOINT rthumb
								{
									OFFSET 0.000000 0.000000 0.000000
									CHANNELS 3 Zrotation Yrotation Xrotation
									End Site
									{
										OFFSET 0.000000 0.000000 0.000000
									}
								}
							}
						}
					}
				}
			}
		}
	}
}
MOTION
Frames: 12
Frame Time: 0.008333
0.745649 16.755414 2.398276 -177.420012 6.485609 -171.019797 -5.283276 -1.871285 -0.909392 -12.405435 5.164441 -34.021409 6.601413 14.074863 44.400484 0.572324 -9.841178 -12.398987 0.018900 -0.888400 -2.441700 3.168149 1.487852 -0.910546 16.646222 12.607306 -27.139122 -9.413208 -14.933221 51.521448 -1.242153 8.391696 -16.363481 -1.987500 8.840000 -25.296200 4.926452 -1.833267 11.617876 1.980034 0.147447 -2.753704 -1.022314 0.441045 9.657822 -1.541408 -0.642500 -18.931480 -5.678976 2.156649 9.751472 -4.135000 0.944900 4.012500 -5.074217 -2.841367 2.692564 -71.985508 5.667412 43.212716 11.874015 -26.258072 -3.577364 1.052639 0.963241 44.976657 35.989339 -19.893858 -14.990800 -7.125000 0.000000 0.000000 4.438300 3.900100 -4.138800 7.718461 3.839476 4.151336 70.566748 7.139626 19.795639 -27.993788 44.127656 -9.195486 -0.002866 -2.430089 -0.391390 -15.171540 8.234780 -2.897400 7.125000 0.000000 0.000000 8.387600 -18.914500 5.272400 
0.745022 16.766433 2.383137 -177.497719 6.022242 -171.238925 -5.251803 -1.872645 -0.928265 -12.520237 5.052536 -33.544139 6.523742 14.038300 44.095185 0.556277 -9.971814 -12.240130 0.016000 -0.816400 -2.243900 3.204234 1.460248 -0.879412 16.452097 13.982319 -27.142674 -9.790814 -15.201613 53.101733 -1.189970 6.853055 -16.465207 -2.362500 9.583500 -27.638400 4.568988 -1.907358 11.532417 1.967035 0.018664 -2.756295 -0.992627 0.359300 9.720997 -1.500386 -0.660015 -19.086847 -5.562063 2.130868 9.985234 -4.102400 0.931300 4.121600 -5.096182 -2.833988 2.701464 -71.592744 5.484274 42.870206 11.848394 -26.247416 -3.609148 1.032109 0.988212 44.967430 37.028124 -19.732783 -15.467700 -7.125000 0.000000 0.000000 5.118500 3.773800 -4.790000 7.686428 3.858802 4.137117 70.887765 6.656068 19.351655 -27.780075 44.006856 -9.139308 -0.009970 -2.451451 -0.344538 -15.626480 8.303776 -3.014300 7.125000 0.000000 0.000000 8.068700 -18.787300 5.090900 
0.745828 16.775032 2.368626 -177.567047 5.508077 -171.474082 -5.223619 -1.875810 -0.951699 -12.603936 4.909552 -33.064758 6.457340 14.013617 43.840059 0.540984 -10.145952 -12.097303 0.013400 -0.748400 -2.056700 3.251534 1.424451 -0.839721 16.260778 15.172214 -27.322208 -10.233172 -15.492809 54.904996 -1.123412 5.532611 -16.462451 -2.534000 9.899500 -28.652000 4.256629 -1.984316 11.432170 1.951244 -0.111018 -2.753041 -0.996965 0.287776 9.806959 -1.530301 -0.695472 -19.172722 -5.380977 2.062199 10.156282 -4.031400 0.901500 4.178600 -5.127972 -2.829357 2.717923 -71.147417 5.230139 42.536253 11.849304 -26.254206 -3.644374 1.009542 1.013485 44.847422 37.952857 -19.550246 -15.872000 -7.125000 0.000000 0.000000 5.732300 3.701000 -5.377800 7.654285 3.864434 4.125490 71.186451 6.174214 18.960523 -27.572847 43.894543 -9.086683 -0.015579 -2.473327 -0.414035 -16.089925 8.367773 -3.133000 7.125000 0.000000 0.000000 7.746700 -18.662700 4.905500 
0.748157 16.781571 2.353308 -177.641189 4.941071 -171.729472 -5.196402 -1.880974 -0.979610 -12.680639 4.740482 -32.573231 6.398579 13.997572 43.618349 0.527270 -10.291457 -11.966712 0.013700 -0.754600 -2.073900 3.306733 1.382025 -0.794531 16.040223 16.260973 -27.624648 -10.744357 -15.802648 56.933909 -1.048740 4.477277 -16.296951 -2.371400 9.600200 -27.691600 3.982378 -2.049794 11.306550 1.931264 -0.223644 -2.743180 -1.028392 0.233985 9.921004 -1.600144 -0.767576 -19.201268 -5.167924 1.935522 10.326799 -3.940700 0.847400 4.209300 -5.172571 -2.826265 2.741510 -70.628227 4.866143 42.310399 11.881043 -26.281438 -3.682085 0.987025 1.037062 44.379226 38.668889 -19.545658 -16.280600 -7.125000 0.000000 0.000000 6.178300 3.478700 -5.826600 7.635921 3.867978 4.114810 71.457822 5.548401 18.627208 -27.606728 43.961962 -9.147310 -0.005961 -2.502018 -0.635856 -16.515518 8.275243 -3.204100 7.125000 0.000000 0.000000 7.446600 -18.693400 4.706900 
0.751650 16.785692 2.337811 -177.702465 4.333025 -171.985713 -5.171170 -1.886779 -1.011172 -12.738186 4.548555 -32.076354 6.343315 13.986226 43.413223 0.515197 -10.452614 -11.861654 0.013700 -0.756400 -2.078800 3.373401 1.327718 -0.736162 15.798822 17.186922 -28.122748 -11.336762 -16.122347 59.213455 -0.973119 3.718050 -15.923903 -2.212100 9.294600 -26.721400 3.761188 -2.100975 11.159412 1.906791 -0.320399 -2.735124 -1.102502 0.196871 10.028210 -1.690225 -0.865970 -19.186928 -4.951213 1.771016 10.515241 -3.841700 0.777000 4.231500 -5.228653 -2.825563 2.767941 -70.016193 4.423625 42.269828 12.001437 -26.381260 -3.734467 0.962830 1.064331 43.437745 39.086427 -19.624753 -16.581500 -7.125000 0.000000 0.000000 6.421100 3.245500 -6.086200 7.622916 3.874373 4.102884 71.696104 4.837500 18.360869 -27.710257 44.085752 -9.240284 0.004199 -2.531057 -1.025361 -16.928130 8.219854 -3.281900 7.125000 0.000000 0.000000 7.160100 -18.685700 4.524200 
0.755950 16.789633 2.321687 -177.767109 3.682492 -172.294572 -5.142692 -1.896555 -1.046202 -12.791800 4.362198 -31.490688 6.274094 13.969941 43.157337 0.498172 -10.636716 -11.707739 0.012800 -0.730700 -2.008100 3.443146 1.271777 -0.670463 15.559797 17.951310 -28.735885 -12.023828 -16.455132 61.777986 -0.907028 3.177790 -15.477522 -2.134100 9.140000 -26.234200 3.538633 -2.158045 11.058877 1.885489 -0.419128 -2.729513 -1.164125 0.158933 10.098944 -1.785572 -0.980500 -19.145472 -4.765701 1.593172 10.730462 -3.752400 0.700200 4.260800 -5.284075 -2.828035 2.794049 -69.368921 3.945503 42.318202 12.172240 -26.520548 -3.794619 0.936012 1.096200 42.186674 39.316071 -19.667277 -16.752600 -7.125000 0.000000 0.000000 6.555600 3.111600 -6.231600 7.607706 3.886239 4.090599 71.920360 4.134703 18.077985 -27.673032 44.105792 -9.268441 0.002494 -2.553226 -1.356430 -17.387711 8.299724 -3.407100 7.125000 0.000000 0.000000 6.846900 -18.541100 4.345500 
0.766610 16.797874 2.304488 -177.816198 2.922688 -172.609117 -5.114305 -1.904123 -1.084315 -12.809434 4.148120 -30.852738 6.183008 13.937622 42.813019 0.474179 -10.854306 -11.485876 0.012500 -0.721000 -1.981400 3.520658 1.204051 -0.588107 15.334466 18.593589 -29.565481 -12.830937 -16.785204 64.689645 -0.867415 2.822273 -15.195723 -2.173600 9.218700 -26.482000 3.292500 -2.233929 10.951720 1.873524 -0.540762 -2.727204 -1.183901 0.104672 10.160504 -1.893061 -1.104509 -19.112470 -4.571105 1.408687 11.011877 -3.656800 0.620500 4.317100 -5.336625 -2.826236 2.818411 -68.688632 3.416345 42.362674 12.374401 -26.690306 -3.864095 0.908116 1.129806 40.923467 39.500384 -19.625490 -16.841200 -7.125000 0.000000 0.000000 6.680300 3.089500 -6.354600 7.585518 3.896308 4.079290 72.138939 3.546310 17.748095 -27.383247 43.938880 -9.178901 -0.018469 -2.563137 -1.654157 -17.883856 8.626928 -3.612600 7.125000 0.000000 0.000000 6.522600 -18.148500 4.193700 
0.778345 16.817671 2.285945 -177.865065 2.161406 -172.955259 -5.080552 -1.916333 -1.130672 -12.841813 3.959279 -30.086258 6.059787 13.887282 42.342563 0.447609 -11.026530 -11.234860 0.012400 -0.720300 -1.979400 3.605898 1.123734 -0.487611 15.071177 19.131344 -30.625810 -13.779376 -17.100752 68.003686 -0.848688 2.616304 -15.029012 -2.343800 9.548200 -27.525800 3.023713 -2.313830 10.867224 1.863965 -0.662491 -2.721644 -1.175248 0.050929 10.221386 -2.031325 -1.226722 -19.086316 -4.373470 1.235794 11.321350 -3.552100 0.546500 4.386700 -5.390994 -2.825408 2.842568 -68.021146 2.863339 42.324193 12.616958 -26.909236 -3.950965 0.883421 1.160531 39.756090 39.674989 -19.627526 -16.955500 -7.125000 0.000000 0.000000 6.788600 3.016500 -6.468200 7.568300 3.909907 4.068677 72.321335 2.930482 17.490267 -27.141032 43.802503 -9.106244 -0.034824 -2.570533 -1.961602 -18.324433 8.900353 -3.794600 7.125000 0.000000 0.000000 6.236500 -17.816900 4.053300 
0.789452 16.844276 2.263371 -177.877593 1.400908 -173.288598 -5.044014 -1.933022 -1.182692 -12.848558 3.820031 -29.273120 5.913886 13.820678 41.781198 0.418181 -11.229084 -10.970255 0.012900 -0.733100 -2.014600 3.695719 1.028943 -0.369802 14.801401 19.574176 -31.887332 -14.853179 -17.375553 71.642485 -0.858689 2.602126 -15.017887 -2.591900 10.003100 -28.986700 2.821334 -2.382826 10.737993 1.850024 -0.776083 -2.717553 -1.228493 0.010072 10.294572 -2.102468 -1.350331 -19.071186 -4.189114 1.054892 11.680471 -3.464200 0.469200 4.476600 -5.446331 -2.816898 2.864345 -67.319874 2.300566 42.212247 12.902620 -27.176742 -4.059306 0.858919 1.189320 38.751254 39.987691 -19.660005 -17.174000 -7.125000 0.000000 0.000000 6.974300 2.860600 -6.667900 7.548319 3.930983 4.057515 72.527634 2.299710 17.218896 -26.888906 43.662571 -9.025963 -0.051798 -2.575183 -2.212673 -18.690590 9.187339 -3.967800 7.125000 0.000000 0.000000 6.003400 -17.478800 3.944900 
0.801008 16.868910 2.241514 -177.879233 0.620507 -173.645848 -4.999964 -1.958044 -1.255509 -12.843827 3.640846 -28.360643 5.751595 13.744843 41.153147 0.387536 -11.397658 -10.684864 0.011900 -0.703800 -1.934100 3.776842 0.936546 -0.258446 14.547642 19.887457 -33.241335 -16.026595 -17.597014 75.511704 -0.892478 2.716641 -15.162034 -2.656500 10.117100 -29.356800 2.838203 -0.438562 10.646696 1.980181 -1.360998 -2.736262 -1.282826 -1.581790 10.386491 -2.221760 -1.489911 -19.135864 -3.979363 0.865009 12.087546 -3.351000 0.385900 4.600200 -5.537653 -2.799532 2.879437 -66.633584 1.616401 42.046730 13.209785 -27.456685 -4.177907 0.835971 1.216332 37.877371 40.363372 -19.683297 -17.426100 -7.125000 0.000000 0.000000 7.199400 2.692000 -6.908800 7.499006 3.951123 4.047155 72.678882 1.745993 16.977419 -26.597542 43.489362 -8.926408 -0.066402 -2.576935 -2.508476 -19.001286 9.441723 -4.119800 7.125000 0.000000 0.000000 5.810000 -17.182000 3.854400 
0.812563 16.892290 2.220105 -177.804656 -0.162502 -174.029925 -4.954475 -1.981087 -1.316258 -12.763678 3.485358 -27.429377 5.584325 13.661832 40.502920 0.355490 -11.537416 -10.377977 0.010400 -0.660100 -1.813900 3.846881 0.834289 -0.127417 14.407376 20.189631 -34.609766 -17.273644 -17.745632 79.520110 -0.954873 2.955657 -15.507188 -2.495500 9.829700 -28.426800 2.719914 -0.505313 10.581137 1.972747 -1.471960 -2.722502 -1.342502 -1.619224 10.475284 -2.293881 -1.648909 -19.238978 -3.797064 0.658868 12.599272 -3.257800 0.294500 4.774800 -5.595920 -2.782027 2.895513 -65.928453 0.881358 41.842465 13.513320 -27.734761 -4.300403 0.812724 1.243284 37.116005 40.806127 -19.639752 -17.674100 -7.125000 0.000000 0.000000 7.479600 2.577200 -7.198100 7.481069 3.978524 4.035624 72.822483 1.164251 16.767944 -26.332444 43.330255 -8.831669 -0.080355 -2.574409 -2.732511 -19.232644 9.687670 -4.251900 7.125000 0.000000 0.000000 5.670200 -16.905400 3.795100 
0.824298 16.917461 2.198517 -177.682741 -0.921100 -174.416120 -4.904806 -2.004897 -1.380007 -12.632125 3.292982 -26.465156 5.413158 13.572683 39.831481 0.325519 -11.651673 -10.090941 0.008100 -0.581300 -1.597300 3.901528 0.725339 0.007978 14.358634 20.541574 -35.981518 -18.574277 -17.810036 83.617665 -0.987162 3.119412 -15.444944 -2.371400 9.600100 -27.691400 2.637518 -0.558869 10.522683 1.965036 -1.567196 -2.705856 -1.410997 -1.645462 10.569330 -2.406338 -1.802274 -19.343497 -3.541965 0.443840 13.104580 -3.129400 0.201100 4.944800 -5.655443 -2.767339 2.913329 -65.199872 0.040690 41.661840 13.780985 -27.966098 -4.414772 0.784145 1.271754 36.454165 41.458000 -19.482968 -17.969800 -7.125000 0.000000 0.000000 7.912600 2.523500 -7.630600 7.459628 3.998765 4.023853 72.982396 0.630830 16.541730 -26.052830 43.154846 -8.723909 -0.090926 -2.569681 -2.790961 -19.365029 9.847090 -4.333600 7.125000 0.000000 0.000000 5.590600 -16.730700 3.762700 
